<mxfile host="app.diagrams.net" modified="2023-10-13T08:52:45.838Z" agent="Mozilla/5.0 (Windows NT 10.0; Win64; x64) AppleWebKit/537.36 (KHTML, like Gecko) Chrome/116.0.0.0 Safari/537.36 OPR/102.0.0.0 (Edition Yx GX 03)" etag="Cc-LHEZrBcjyTnPxszt9" version="22.0.4" type="google">
  <diagram name="Страница — 1" id="l8LlNZg6rUj_ulNN_cUZ">
    <mxGraphModel dx="2483" dy="762" grid="1" gridSize="10" guides="1" tooltips="1" connect="1" arrows="1" fold="1" page="1" pageScale="1" pageWidth="827" pageHeight="1169" math="0" shadow="0">
      <root>
        <mxCell id="0" />
        <mxCell id="1" parent="0" />
        <mxCell id="eOe7ErlNW58BYiNXJ7lQ-5" value="" style="endArrow=none;dashed=1;html=1;rounded=0;" parent="1" edge="1">
          <mxGeometry width="50" height="50" relative="1" as="geometry">
            <mxPoint x="340" y="300" as="sourcePoint" />
            <mxPoint x="340" y="300" as="targetPoint" />
          </mxGeometry>
        </mxCell>
        <mxCell id="eOe7ErlNW58BYiNXJ7lQ-17" value="App" style="shape=umlLifeline;perimeter=lifelinePerimeter;whiteSpace=wrap;html=1;container=0;dropTarget=0;collapsible=0;recursiveResize=0;outlineConnect=0;portConstraint=eastwest;newEdgeStyle={&quot;edgeStyle&quot;:&quot;elbowEdgeStyle&quot;,&quot;elbow&quot;:&quot;vertical&quot;,&quot;curved&quot;:0,&quot;rounded&quot;:0};" parent="1" vertex="1">
          <mxGeometry x="40" y="200" width="100" height="1230" as="geometry" />
        </mxCell>
        <mxCell id="eOe7ErlNW58BYiNXJ7lQ-18" value="" style="html=1;points=[[0,0,0,0,5],[0,1,0,0,-5],[1,0,0,0,5],[1,1,0,0,-5]];perimeter=orthogonalPerimeter;outlineConnect=0;targetShapes=umlLifeline;portConstraint=eastwest;newEdgeStyle={&quot;curved&quot;:0,&quot;rounded&quot;:0};" parent="eOe7ErlNW58BYiNXJ7lQ-17" vertex="1">
          <mxGeometry x="40" y="240" width="20" height="80" as="geometry" />
        </mxCell>
        <mxCell id="eOe7ErlNW58BYiNXJ7lQ-19" value="" style="shape=umlDestroy;whiteSpace=wrap;html=1;strokeWidth=3;targetShapes=umlLifeline;" parent="eOe7ErlNW58BYiNXJ7lQ-17" vertex="1">
          <mxGeometry x="35" y="1210" width="30" height="30" as="geometry" />
        </mxCell>
        <mxCell id="eOe7ErlNW58BYiNXJ7lQ-31" value="register()" style="html=1;verticalAlign=bottom;endArrow=block;curved=0;rounded=0;" parent="eOe7ErlNW58BYiNXJ7lQ-17" source="eOe7ErlNW58BYiNXJ7lQ-18" target="eOe7ErlNW58BYiNXJ7lQ-18" edge="1">
          <mxGeometry width="80" relative="1" as="geometry">
            <mxPoint x="70" y="260" as="sourcePoint" />
            <mxPoint x="220" y="260" as="targetPoint" />
          </mxGeometry>
        </mxCell>
        <mxCell id="eOe7ErlNW58BYiNXJ7lQ-95" value="setAccountEmail()" style="html=1;verticalAlign=bottom;endArrow=block;curved=0;rounded=0;" parent="eOe7ErlNW58BYiNXJ7lQ-17" source="eOe7ErlNW58BYiNXJ7lQ-18" target="eOe7ErlNW58BYiNXJ7lQ-18" edge="1">
          <mxGeometry width="80" relative="1" as="geometry">
            <mxPoint x="60" y="240" as="sourcePoint" />
            <mxPoint x="210" y="240" as="targetPoint" />
            <Array as="points">
              <mxPoint x="200" y="250" />
              <mxPoint x="200" y="310" />
            </Array>
          </mxGeometry>
        </mxCell>
        <mxCell id="eOe7ErlNW58BYiNXJ7lQ-99" value="setPassword()" style="html=1;verticalAlign=bottom;endArrow=block;curved=0;rounded=0;" parent="eOe7ErlNW58BYiNXJ7lQ-17" source="eOe7ErlNW58BYiNXJ7lQ-18" target="eOe7ErlNW58BYiNXJ7lQ-18" edge="1">
          <mxGeometry x="0.0417" width="80" relative="1" as="geometry">
            <mxPoint x="110" y="260" as="sourcePoint" />
            <mxPoint x="300" y="270" as="targetPoint" />
            <Array as="points">
              <mxPoint x="280" y="260" />
            </Array>
            <mxPoint as="offset" />
          </mxGeometry>
        </mxCell>
        <mxCell id="IhHbgBTHnsQRh5PoiDl1-35" value="" style="html=1;points=[[0,0,0,0,5],[0,1,0,0,-5],[1,0,0,0,5],[1,1,0,0,-5]];perimeter=orthogonalPerimeter;outlineConnect=0;targetShapes=umlLifeline;portConstraint=eastwest;newEdgeStyle={&quot;curved&quot;:0,&quot;rounded&quot;:0};" vertex="1" parent="eOe7ErlNW58BYiNXJ7lQ-17">
          <mxGeometry x="40" y="550" width="20" height="80" as="geometry" />
        </mxCell>
        <mxCell id="eOe7ErlNW58BYiNXJ7lQ-20" value="Live Stream" style="shape=umlLifeline;perimeter=lifelinePerimeter;whiteSpace=wrap;html=1;container=0;dropTarget=0;collapsible=0;recursiveResize=0;outlineConnect=0;portConstraint=eastwest;newEdgeStyle={&quot;edgeStyle&quot;:&quot;elbowEdgeStyle&quot;,&quot;elbow&quot;:&quot;vertical&quot;,&quot;curved&quot;:0,&quot;rounded&quot;:0};" parent="1" vertex="1">
          <mxGeometry x="310" y="250" width="100" height="1190" as="geometry" />
        </mxCell>
        <mxCell id="eOe7ErlNW58BYiNXJ7lQ-22" value="" style="shape=umlDestroy;whiteSpace=wrap;html=1;strokeWidth=3;targetShapes=umlLifeline;" parent="eOe7ErlNW58BYiNXJ7lQ-20" vertex="1">
          <mxGeometry x="35" y="1170" width="30" height="30" as="geometry" />
        </mxCell>
        <mxCell id="eOe7ErlNW58BYiNXJ7lQ-115" value="" style="html=1;points=[[0,0,0,0,5],[0,1,0,0,-5],[1,0,0,0,5],[1,1,0,0,-5]];perimeter=orthogonalPerimeter;outlineConnect=0;targetShapes=umlLifeline;portConstraint=eastwest;newEdgeStyle={&quot;curved&quot;:0,&quot;rounded&quot;:0};" parent="eOe7ErlNW58BYiNXJ7lQ-20" vertex="1">
          <mxGeometry x="40" y="270" width="20" height="80" as="geometry" />
        </mxCell>
        <mxCell id="eOe7ErlNW58BYiNXJ7lQ-23" value="Chat" style="shape=umlLifeline;perimeter=lifelinePerimeter;whiteSpace=wrap;html=1;container=0;dropTarget=0;collapsible=0;recursiveResize=0;outlineConnect=0;portConstraint=eastwest;newEdgeStyle={&quot;edgeStyle&quot;:&quot;elbowEdgeStyle&quot;,&quot;elbow&quot;:&quot;vertical&quot;,&quot;curved&quot;:0,&quot;rounded&quot;:0};" parent="1" vertex="1">
          <mxGeometry x="590" y="260" width="110" height="1170" as="geometry" />
        </mxCell>
        <mxCell id="eOe7ErlNW58BYiNXJ7lQ-24" value="" style="html=1;points=[[0,0,0,0,5],[0,1,0,0,-5],[1,0,0,0,5],[1,1,0,0,-5]];perimeter=orthogonalPerimeter;outlineConnect=0;targetShapes=umlLifeline;portConstraint=eastwest;newEdgeStyle={&quot;curved&quot;:0,&quot;rounded&quot;:0};" parent="eOe7ErlNW58BYiNXJ7lQ-23" vertex="1">
          <mxGeometry x="44" y="235" width="20" height="70" as="geometry" />
        </mxCell>
        <mxCell id="eOe7ErlNW58BYiNXJ7lQ-25" value="" style="shape=umlDestroy;whiteSpace=wrap;html=1;strokeWidth=3;targetShapes=umlLifeline;" parent="eOe7ErlNW58BYiNXJ7lQ-23" vertex="1">
          <mxGeometry x="39" y="1150" width="30" height="30" as="geometry" />
        </mxCell>
        <mxCell id="IhHbgBTHnsQRh5PoiDl1-9" style="edgeStyle=orthogonalEdgeStyle;rounded=0;orthogonalLoop=1;jettySize=auto;html=1;curved=0;exitX=1;exitY=0;exitDx=0;exitDy=5;exitPerimeter=0;entryX=1;entryY=1;entryDx=0;entryDy=-5;entryPerimeter=0;" edge="1" parent="eOe7ErlNW58BYiNXJ7lQ-23" source="eOe7ErlNW58BYiNXJ7lQ-24" target="eOe7ErlNW58BYiNXJ7lQ-24">
          <mxGeometry relative="1" as="geometry" />
        </mxCell>
        <mxCell id="IhHbgBTHnsQRh5PoiDl1-10" value="donate()" style="edgeLabel;html=1;align=center;verticalAlign=middle;resizable=0;points=[];" vertex="1" connectable="0" parent="IhHbgBTHnsQRh5PoiDl1-9">
          <mxGeometry x="-0.3167" y="2" relative="1" as="geometry">
            <mxPoint as="offset" />
          </mxGeometry>
        </mxCell>
        <mxCell id="eOe7ErlNW58BYiNXJ7lQ-28" value="" style="html=1;points=[[0,0,0,0,5],[0,1,0,0,-5],[1,0,0,0,5],[1,1,0,0,-5]];perimeter=orthogonalPerimeter;outlineConnect=0;targetShapes=umlLifeline;portConstraint=eastwest;newEdgeStyle={&quot;curved&quot;:0,&quot;rounded&quot;:0};" parent="1" vertex="1">
          <mxGeometry x="-90" y="200" width="20" height="1210" as="geometry" />
        </mxCell>
        <mxCell id="eOe7ErlNW58BYiNXJ7lQ-29" value="User" style="rounded=0;whiteSpace=wrap;html=1;" parent="1" vertex="1">
          <mxGeometry x="-140" y="150" width="120" height="60" as="geometry" />
        </mxCell>
        <mxCell id="eOe7ErlNW58BYiNXJ7lQ-30" value="register" style="html=1;verticalAlign=bottom;endArrow=block;curved=0;rounded=0;" parent="1" target="eOe7ErlNW58BYiNXJ7lQ-18" edge="1">
          <mxGeometry width="80" relative="1" as="geometry">
            <mxPoint x="-70" y="480" as="sourcePoint" />
            <mxPoint x="60" y="480" as="targetPoint" />
          </mxGeometry>
        </mxCell>
        <mxCell id="eOe7ErlNW58BYiNXJ7lQ-32" value="start_stream" style="html=1;verticalAlign=bottom;endArrow=block;curved=0;rounded=0;" parent="1" source="IhHbgBTHnsQRh5PoiDl1-39" edge="1">
          <mxGeometry width="80" relative="1" as="geometry">
            <mxPoint x="-50" y="560" as="sourcePoint" />
            <mxPoint x="350" y="585" as="targetPoint" />
          </mxGeometry>
        </mxCell>
        <mxCell id="eOe7ErlNW58BYiNXJ7lQ-35" value="send_records()" style="html=1;verticalAlign=bottom;endArrow=block;curved=0;rounded=0;" parent="1" source="IhHbgBTHnsQRh5PoiDl1-35" edge="1">
          <mxGeometry width="80" relative="1" as="geometry">
            <mxPoint x="-60" y="804.6" as="sourcePoint" />
            <mxPoint x="470" y="804.6" as="targetPoint" />
          </mxGeometry>
        </mxCell>
        <mxCell id="eOe7ErlNW58BYiNXJ7lQ-47" value="" style="html=1;verticalAlign=bottom;endArrow=block;curved=0;rounded=0;exitX=1;exitY=1;exitDx=0;exitDy=-5;exitPerimeter=0;" parent="1" source="eOe7ErlNW58BYiNXJ7lQ-24" target="eOe7ErlNW58BYiNXJ7lQ-49" edge="1">
          <mxGeometry width="80" relative="1" as="geometry">
            <mxPoint x="261" y="710" as="sourcePoint" />
            <mxPoint x="566" y="710" as="targetPoint" />
          </mxGeometry>
        </mxCell>
        <mxCell id="IhHbgBTHnsQRh5PoiDl1-37" value="interaction with the chat" style="edgeLabel;html=1;align=center;verticalAlign=middle;resizable=0;points=[];" vertex="1" connectable="0" parent="eOe7ErlNW58BYiNXJ7lQ-47">
          <mxGeometry x="-0.108" y="3" relative="1" as="geometry">
            <mxPoint x="-1" as="offset" />
          </mxGeometry>
        </mxCell>
        <mxCell id="eOe7ErlNW58BYiNXJ7lQ-48" value="Audience" style="shape=umlLifeline;perimeter=lifelinePerimeter;whiteSpace=wrap;html=1;container=0;dropTarget=0;collapsible=0;recursiveResize=0;outlineConnect=0;portConstraint=eastwest;newEdgeStyle={&quot;edgeStyle&quot;:&quot;elbowEdgeStyle&quot;,&quot;elbow&quot;:&quot;vertical&quot;,&quot;curved&quot;:0,&quot;rounded&quot;:0};" parent="1" vertex="1">
          <mxGeometry x="827" y="330" width="110" height="1080" as="geometry" />
        </mxCell>
        <mxCell id="eOe7ErlNW58BYiNXJ7lQ-49" value="" style="html=1;points=[[0,0,0,0,5],[0,1,0,0,-5],[1,0,0,0,5],[1,1,0,0,-5]];perimeter=orthogonalPerimeter;outlineConnect=0;targetShapes=umlLifeline;portConstraint=eastwest;newEdgeStyle={&quot;curved&quot;:0,&quot;rounded&quot;:0};" parent="eOe7ErlNW58BYiNXJ7lQ-48" vertex="1">
          <mxGeometry x="50" y="150" width="20" height="100" as="geometry" />
        </mxCell>
        <mxCell id="IhHbgBTHnsQRh5PoiDl1-7" style="edgeStyle=orthogonalEdgeStyle;rounded=0;orthogonalLoop=1;jettySize=auto;html=1;curved=0;exitX=1;exitY=0;exitDx=0;exitDy=5;exitPerimeter=0;entryX=1;entryY=1;entryDx=0;entryDy=-5;entryPerimeter=0;" edge="1" parent="eOe7ErlNW58BYiNXJ7lQ-48" source="eOe7ErlNW58BYiNXJ7lQ-49" target="eOe7ErlNW58BYiNXJ7lQ-49">
          <mxGeometry relative="1" as="geometry" />
        </mxCell>
        <mxCell id="IhHbgBTHnsQRh5PoiDl1-8" value="log_in()" style="edgeLabel;html=1;align=center;verticalAlign=middle;resizable=0;points=[];" vertex="1" connectable="0" parent="IhHbgBTHnsQRh5PoiDl1-7">
          <mxGeometry x="-0.0337" y="2" relative="1" as="geometry">
            <mxPoint as="offset" />
          </mxGeometry>
        </mxCell>
        <mxCell id="IhHbgBTHnsQRh5PoiDl1-11" style="edgeStyle=orthogonalEdgeStyle;rounded=0;orthogonalLoop=1;jettySize=auto;html=1;curved=0;exitX=1;exitY=0;exitDx=0;exitDy=5;exitPerimeter=0;entryX=1;entryY=1;entryDx=0;entryDy=-5;entryPerimeter=0;" edge="1" parent="eOe7ErlNW58BYiNXJ7lQ-48" source="eOe7ErlNW58BYiNXJ7lQ-49" target="eOe7ErlNW58BYiNXJ7lQ-49">
          <mxGeometry relative="1" as="geometry">
            <Array as="points">
              <mxPoint x="150" y="155" />
              <mxPoint x="150" y="245" />
            </Array>
          </mxGeometry>
        </mxCell>
        <mxCell id="IhHbgBTHnsQRh5PoiDl1-12" value="Log_out()" style="edgeLabel;html=1;align=center;verticalAlign=middle;resizable=0;points=[];" vertex="1" connectable="0" parent="IhHbgBTHnsQRh5PoiDl1-11">
          <mxGeometry x="0.0104" y="2" relative="1" as="geometry">
            <mxPoint y="1" as="offset" />
          </mxGeometry>
        </mxCell>
        <mxCell id="eOe7ErlNW58BYiNXJ7lQ-38" value="" style="shape=umlDestroy;whiteSpace=wrap;html=1;strokeWidth=3;targetShapes=umlLifeline;" parent="1" vertex="1">
          <mxGeometry x="867" y="1380" width="30" height="30" as="geometry" />
        </mxCell>
        <mxCell id="IhHbgBTHnsQRh5PoiDl1-4" style="edgeStyle=orthogonalEdgeStyle;rounded=0;orthogonalLoop=1;jettySize=auto;html=1;curved=0;" edge="1" parent="1" source="eOe7ErlNW58BYiNXJ7lQ-115" target="eOe7ErlNW58BYiNXJ7lQ-24">
          <mxGeometry relative="1" as="geometry" />
        </mxCell>
        <mxCell id="IhHbgBTHnsQRh5PoiDl1-5" value="start_stream()" style="text;html=1;align=center;verticalAlign=middle;resizable=0;points=[];autosize=1;strokeColor=none;fillColor=none;" vertex="1" parent="1">
          <mxGeometry x="480" y="508" width="100" height="30" as="geometry" />
        </mxCell>
        <mxCell id="IhHbgBTHnsQRh5PoiDl1-18" value="Records" style="shape=umlLifeline;perimeter=lifelinePerimeter;whiteSpace=wrap;html=1;container=0;dropTarget=0;collapsible=0;recursiveResize=0;outlineConnect=0;portConstraint=eastwest;newEdgeStyle={&quot;edgeStyle&quot;:&quot;elbowEdgeStyle&quot;,&quot;elbow&quot;:&quot;vertical&quot;,&quot;curved&quot;:0,&quot;rounded&quot;:0};" vertex="1" parent="1">
          <mxGeometry x="430" y="260" width="100" height="1190" as="geometry" />
        </mxCell>
        <mxCell id="IhHbgBTHnsQRh5PoiDl1-19" value="" style="shape=umlDestroy;whiteSpace=wrap;html=1;strokeWidth=3;targetShapes=umlLifeline;" vertex="1" parent="IhHbgBTHnsQRh5PoiDl1-18">
          <mxGeometry x="35" y="1170" width="30" height="30" as="geometry" />
        </mxCell>
        <mxCell id="IhHbgBTHnsQRh5PoiDl1-20" value="" style="html=1;points=[[0,0,0,0,5],[0,1,0,0,-5],[1,0,0,0,5],[1,1,0,0,-5]];perimeter=orthogonalPerimeter;outlineConnect=0;targetShapes=umlLifeline;portConstraint=eastwest;newEdgeStyle={&quot;curved&quot;:0,&quot;rounded&quot;:0};" vertex="1" parent="IhHbgBTHnsQRh5PoiDl1-18">
          <mxGeometry x="40" y="490" width="20" height="80" as="geometry" />
        </mxCell>
        <mxCell id="IhHbgBTHnsQRh5PoiDl1-21" value="get_statistics()" style="html=1;verticalAlign=bottom;endArrow=block;curved=0;rounded=0;entryX=1;entryY=1;entryDx=0;entryDy=-5;entryPerimeter=0;" edge="1" parent="IhHbgBTHnsQRh5PoiDl1-18" source="IhHbgBTHnsQRh5PoiDl1-20" target="IhHbgBTHnsQRh5PoiDl1-20">
          <mxGeometry width="80" relative="1" as="geometry">
            <mxPoint x="60" y="420" as="sourcePoint" />
            <mxPoint x="210" y="420" as="targetPoint" />
            <Array as="points">
              <mxPoint x="200" y="490" />
              <mxPoint x="200" y="565" />
            </Array>
            <mxPoint as="offset" />
          </mxGeometry>
        </mxCell>
        <mxCell id="IhHbgBTHnsQRh5PoiDl1-22" value="" style="html=1;verticalAlign=bottom;endArrow=block;curved=0;rounded=0;" edge="1" parent="IhHbgBTHnsQRh5PoiDl1-18" source="IhHbgBTHnsQRh5PoiDl1-20" target="IhHbgBTHnsQRh5PoiDl1-20">
          <mxGeometry x="0.0417" width="80" relative="1" as="geometry">
            <mxPoint x="110" y="440" as="sourcePoint" />
            <mxPoint x="300" y="450" as="targetPoint" />
            <Array as="points">
              <mxPoint x="120" y="530" />
            </Array>
            <mxPoint as="offset" />
          </mxGeometry>
        </mxCell>
        <mxCell id="IhHbgBTHnsQRh5PoiDl1-26" value="publish_records()" style="edgeLabel;html=1;align=center;verticalAlign=middle;resizable=0;points=[];" vertex="1" connectable="0" parent="IhHbgBTHnsQRh5PoiDl1-22">
          <mxGeometry x="-0.0102" y="1" relative="1" as="geometry">
            <mxPoint y="-1" as="offset" />
          </mxGeometry>
        </mxCell>
        <mxCell id="IhHbgBTHnsQRh5PoiDl1-27" value="make_statistics()" style="html=1;verticalAlign=bottom;endArrow=block;curved=0;rounded=0;" edge="1" parent="1" source="IhHbgBTHnsQRh5PoiDl1-35">
          <mxGeometry width="80" relative="1" as="geometry">
            <mxPoint x="-60" y="780" as="sourcePoint" />
            <mxPoint x="470" y="780" as="targetPoint" />
          </mxGeometry>
        </mxCell>
        <mxCell id="IhHbgBTHnsQRh5PoiDl1-39" value="" style="html=1;points=[[0,0,0,0,5],[0,1,0,0,-5],[1,0,0,0,5],[1,1,0,0,-5]];perimeter=orthogonalPerimeter;outlineConnect=0;targetShapes=umlLifeline;portConstraint=eastwest;newEdgeStyle={&quot;curved&quot;:0,&quot;rounded&quot;:0};" vertex="1" parent="1">
          <mxGeometry x="80" y="550" width="20" height="80" as="geometry" />
        </mxCell>
      </root>
    </mxGraphModel>
  </diagram>
</mxfile>
